<?xml version="1.0"?>
<svg xmlns="http://www.w3.org/2000/svg" xmlns:xlink="http://www.w3.org/1999/xlink" version="1.1" id="Capa_1" x="0px" y="0px" viewBox="0 0 512 512" style="enable-background:new 0 0 512 512;" xml:space="preserve" width="512px" height="512px" class=""><g><g>
	<g>
		<path d="M490.667,128H384V21.333C384,8.533,375.467,0,362.667,0H149.333C136.533,0,128,8.533,128,21.333V128H21.333    C8.533,128,0,136.533,0,149.333v64h42.667v-42.667h106.667c12.8,0,21.333-8.533,21.333-21.333V42.667h170.667v106.667    c0,12.8,8.533,21.333,21.333,21.333h106.667v42.667H512v-64C512,136.533,503.467,128,490.667,128z" data-original="#000000" class="active-path" data-old_color="#000000" fill="#007BFF"/>
	</g>
</g><g>
	<g>
		<path d="M469.333,298.667v42.667H362.667c-12.8,0-21.333,8.533-21.333,21.333v106.667H170.667V362.667    c0-12.8-8.533-21.333-21.333-21.333H42.667v-42.667H0v64C0,375.467,8.533,384,21.333,384H128v106.667    c0,12.8,8.533,21.333,21.333,21.333h213.333c12.8,0,21.333-8.533,21.333-21.333V384h106.667c12.8,0,21.333-8.533,21.333-21.333    v-64H469.333z" data-original="#000000" class="active-path" data-old_color="#000000" fill="#007BFF"/>
	</g>
</g><g>
	<g>
		<path d="M334.933,234.667l-38.4-93.867c-6.4-19.2-36.267-17.067-40.533,2.133l-42.667,130.133l-23.467-66.133    C185.6,192,164.267,185.6,153.6,198.4l-34.133,36.267H0v42.667h128c6.4,0,10.667-2.133,14.933-6.4l19.2-19.2l32,96    c6.4,19.2,34.133,19.2,40.533,0l44.8-136.533l21.333,53.333c4.267,8.533,10.667,12.8,19.2,12.8h192v-42.667H334.933z" data-original="#000000" class="active-path" data-old_color="#000000" fill="#007BFF"/>
	</g>
</g></g> </svg>
